<?xml version="1.0" encoding="UTF-8" standalone="no"?>
<!-- Created with Inkscape (http://www.inkscape.org/) -->

<svg
   xmlns:dc="http://purl.org/dc/elements/1.1/"
   xmlns:cc="http://creativecommons.org/ns#"
   xmlns:rdf="http://www.w3.org/1999/02/22-rdf-syntax-ns#"
   xmlns:svg="http://www.w3.org/2000/svg"
   xmlns="http://www.w3.org/2000/svg"
   xmlns:sodipodi="http://sodipodi.sourceforge.net/DTD/sodipodi-0.dtd"
   xmlns:inkscape="http://www.inkscape.org/namespaces/inkscape"
   width="439"
   height="130"
   viewBox="0 0 439 130"
   version="1.1"
   id="SVGRoot"
   inkscape:version="0.92.4 5da689c313, 2019-01-14"
   sodipodi:docname="snift-banner-transparent.svg">
  <defs
     id="defs354" />
  <sodipodi:namedview
     id="base"
     pagecolor="#ffffff"
     bordercolor="#666666"
     borderopacity="1.0"
     inkscape:pageopacity="0.0"
     inkscape:pageshadow="2"
     inkscape:zoom="1.28"
     inkscape:cx="437.96236"
     inkscape:cy="231.87155"
     inkscape:document-units="px"
     inkscape:current-layer="layer1"
     showgrid="false"
     inkscape:window-width="1920"
     inkscape:window-height="1052"
     inkscape:window-x="0"
     inkscape:window-y="0"
     inkscape:window-maximized="1" />
  <metadata
     id="metadata357">
    <rdf:RDF>
      <cc:Work
         rdf:about="">
        <dc:format>image/svg+xml</dc:format>
        <dc:type
           rdf:resource="http://purl.org/dc/dcmitype/StillImage" />
        <dc:title></dc:title>
      </cc:Work>
    </rdf:RDF>
  </metadata>
  <g
     inkscape:label="Layer 1"
     inkscape:groupmode="layer"
     id="layer1"
     transform="translate(0,-470)">
    <g
       id="g395"
       transform="matrix(2.6642883,0,0,2.6642883,-259.20807,98.046851)">
      <path
         inkscape:export-ydpi="72"
         inkscape:export-xdpi="72"
         inkscape:export-filename="/home/shriram/snift-banner-transparent/snift-banner-transparent-72dpi.png"
         id="path3772-9-02"
         d="m 143.16031,144.7245 c -6.76486,-2.62439 -13.89871,-3.93591 -21.03391,-3.93591 -2.89445,0 -5.7889,0.21524 -8.65661,0.64707 v 10e-4 c -4.20465,0.63103 -8.35581,1.72731 -12.3773,3.28751 0,14.88002 -1.986669,36.67332 20.2625,42.42077 0.25399,0.0669 0.51073,0.12968 0.77141,0.19117 23.06604,-5.43996 21.03391,-27.56212 21.03391,-42.61194 z m -36.36047,12.20617 c 1.00137,-1.45993 2.49471,-2.55487 4.24208,-3.04285 0.65777,-0.18583 1.35164,-0.28478 2.06823,-0.28478 2.62038,0 4.93193,1.3182 6.30897,3.32761 -0.46926,0.68451 -1.04682,1.29014 -1.7086,1.78882 -1.27944,-0.96661 -2.87306,-1.54014 -4.60037,-1.54014 -0.71793,0 -1.4118,0.099 -2.06956,0.28343 -0.92783,0.26067 -1.78347,0.69118 -2.53215,1.25671 -0.66178,-0.49868 -1.23934,-1.10431 -1.7086,-1.78882 z m 15.32656,20.23042 c -2.94392,0 -5.68061,-0.89039 -7.95339,-2.41717 -3.60302,-2.41583 -6.04426,-6.43063 -6.31432,-11.02833 1.27544,1.23131 2.70862,2.29952 4.26747,3.16985 2.95997,1.65245 6.36914,2.59498 10.00024,2.59498 5.54291,0 10.57111,-2.19657 14.26638,-5.76483 -0.43855,7.49884 -6.65791,13.4455 -14.26638,13.4455 z m 13.61529,-18.44161 c -1.27944,-0.9666 -2.87305,-1.54014 -4.60037,-1.54014 -1.72598,0 -3.3196,0.57354 -4.60038,1.54014 -0.66178,-0.49867 -1.23933,-1.1043 -1.70859,-1.78881 1.37837,-2.00941 3.68992,-3.32762 6.30897,-3.32762 2.62038,0 4.93193,1.31821 6.3103,3.32762 -0.47062,0.68451 -1.04815,1.29014 -1.70993,1.78881 z"
         style="fill:#ffdd55;stroke:none;stroke-width:0.13369294"
         inkscape:connector-curvature="0" />
      <path
         inkscape:export-ydpi="72"
         inkscape:export-xdpi="72"
         inkscape:export-filename="/home/shriram/snift-banner-transparent/snift-banner-transparent-72dpi.png"
         id="path3774-6-0"
         d="m 121.35499,187.14528 c -22.249169,-5.74747 -20.2625,-27.54075 -20.2625,-42.42078 4.02149,-1.56019 8.17265,-2.65647 12.3773,-3.28751 -1.53346,3.88513 -2.26877,8.14325 -2.42787,12.45083 -1.74737,0.48799 -3.24071,1.58292 -4.24208,3.04285 0.46926,0.68451 1.04682,1.29014 1.7086,1.78881 0.74868,-0.56554 1.60432,-0.99601 2.53215,-1.25671 0.10563,3.20729 0.49867,6.39319 1.08557,9.42267 -1.55885,-0.87033 -2.99203,-1.93854 -4.26747,-3.16985 0.27008,4.5977 2.7113,8.6125 6.31432,11.02833 2.17251,6.57234 5.04156,11.40266 7.18198,12.40136 z"
         style="fill:#ffad42;stroke:none;stroke-width:0.13369294"
         inkscape:connector-curvature="0" />
      <g
         inkscape:export-ydpi="72"
         inkscape:export-xdpi="72"
         inkscape:export-filename="/home/shriram/snift-banner-transparent/snift-banner-transparent-72dpi.png"
         transform="matrix(5.6571451,0,0,5.6571451,-126.12847,-162.8852)"
         id="text3792-2-1"
         style="font-style:normal;font-variant:normal;font-weight:bold;font-stretch:normal;font-size:9.61287785px;line-height:1.25;font-family:manrope;-inkscape-font-specification:'manrope Bold';letter-spacing:-0.18218686px;word-spacing:0px;fill:#333333;fill-opacity:1;stroke:none;stroke-width:0.24032192"
         aria-label="Snift">
        <path
           inkscape:connector-curvature="0"
           id="path131-9"
           style="font-style:normal;font-variant:normal;font-weight:bold;font-stretch:normal;font-size:6.35000038px;font-family:'Space Mono';-inkscape-font-specification:'Space Mono Bold';letter-spacing:-0.18218686px;fill:#333333;stroke:none;stroke-width:0.24032192"
           d="m 52.588985,56.959127 q 0,-0.2667 -0.20955,-0.46355 -0.2032,-0.19685 -0.57785,-0.19685 -0.3175,0 -0.50165,0.13335 -0.18415,0.127 -0.18415,0.34925 0,0.1143 0.04445,0.20955 0.04445,0.0889 0.1524,0.1651 0.1143,0.06985 0.2921,0.127 0.18415,0.05715 0.46355,0.10795 0.6985,0.127 1.0668,0.42545 0.3683,0.29845 0.3683,0.88265 v 0.0762 q 0,0.31115 -0.1143,0.56515 -0.10795,0.24765 -0.3175,0.42545 -0.20955,0.1778 -0.508,0.27305 -0.29845,0.09525 -0.6731,0.09525 -0.43815,0 -0.7747,-0.12065 -0.330201,-0.127 -0.552451,-0.3429 -0.22225,-0.22225 -0.33655,-0.51435 -0.1143,-0.29845 -0.1143,-0.6477 v -0.1905 h 0.8382 v 0.1524 q 0,0.40005 0.228601,0.64135 0.23495,0.23495 0.7239,0.23495 0.381,0 0.56515,-0.1651 0.18415,-0.1651 0.18415,-0.3937 0,-0.10795 -0.0381,-0.2032 -0.0381,-0.1016 -0.13335,-0.1778 -0.09525,-0.08255 -0.26035,-0.14605 -0.1651,-0.0635 -0.4191,-0.10795 -0.33655,-0.05715 -0.61595,-0.14605 -0.279401,-0.09525 -0.488951,-0.24765 -0.2032,-0.1524 -0.3175,-0.381 -0.1143,-0.2286 -0.1143,-0.5588 v -0.0381 q 0,-0.27305 0.10795,-0.50165 0.1143,-0.23495 0.31115,-0.4064 0.2032,-0.17145 0.482601,-0.2667 0.28575,-0.09525 0.635,-0.09525 0.3937,0 0.6985,0.1143 0.3048,0.10795 0.508,0.29845 0.20955,0.1905 0.31115,0.43815 0.10795,0.24765 0.10795,0.5207 v 0.2286 h -0.8382 z" />
        <path
           inkscape:connector-curvature="0"
           id="path133-6"
           style="font-style:normal;font-variant:normal;font-weight:bold;font-stretch:normal;font-size:6.35000038px;font-family:'Space Mono';-inkscape-font-specification:'Space Mono Bold';letter-spacing:-0.18218686px;fill:#333333;stroke:none;stroke-width:0.24032192"
           d="m 54.879032,60.045227 h -0.8001 v -3.1496 h 0.8001 v 0.4699 h 0.1143 q 0.10795,-0.2667 0.34925,-0.41275 0.2413,-0.14605 0.56515,-0.14605 0.2286,0 0.42545,0.0762 0.2032,0.06985 0.3556,0.22225 0.1524,0.1524 0.23495,0.38735 0.0889,0.23495 0.0889,0.5588 v 1.9939 h -0.8001 v -1.7907 q 0,-0.33655 -0.1651,-0.52705 -0.15875,-0.19685 -0.46355,-0.19685 -0.3556,0 -0.5334,0.2413 -0.17145,0.23495 -0.17145,0.635 z" />
        <path
           inkscape:connector-curvature="0"
           id="path135-2"
           style="font-style:normal;font-variant:normal;font-weight:bold;font-stretch:normal;font-size:6.35000038px;font-family:'Space Mono';-inkscape-font-specification:'Space Mono Bold';letter-spacing:-0.18218686px;fill:#333333;stroke:none;stroke-width:0.24032192"
           d="m 57.835829,59.283227 h 1.0668 v -1.6256 h -0.9906 v -0.762 h 1.7907 v 2.3876 h 0.9144 v 0.762 h -2.7813 z m 2.06375,-3.32105 q 0,0.127 -0.0508,0.2413 -0.04445,0.10795 -0.127,0.1905 -0.08255,0.0762 -0.19685,0.127 -0.10795,0.04445 -0.2286,0.04445 -0.127,0 -0.23495,-0.04445 -0.10795,-0.0508 -0.1905,-0.127 -0.08255,-0.08255 -0.13335,-0.1905 -0.04445,-0.1143 -0.04445,-0.2413 0,-0.127 0.04445,-0.23495 0.0508,-0.1143 0.13335,-0.1905 0.08255,-0.08255 0.1905,-0.127 0.10795,-0.0508 0.23495,-0.0508 0.12065,0 0.2286,0.0508 0.1143,0.04445 0.19685,0.127 0.08255,0.0762 0.127,0.1905 0.0508,0.10795 0.0508,0.23495 z" />
        <path
           inkscape:connector-curvature="0"
           id="path137-1"
           style="font-style:normal;font-variant:normal;font-weight:bold;font-stretch:normal;font-size:6.35000038px;font-family:'Space Mono';-inkscape-font-specification:'Space Mono Bold';letter-spacing:-0.18218686px;fill:#333333;stroke:none;stroke-width:0.24032192"
           d="m 61.453026,56.895627 h 0.89535 v -0.6477 q 0,-0.27305 0.18415,-0.4572 0.18415,-0.1905 0.4572,-0.1905 h 1.2827 v 0.762 h -0.9525 q -0.17145,0 -0.17145,0.1905 v 0.3429 h 1.23825 v 0.762 h -1.23825 v 2.3876 h -0.8001 v -2.3876 h -0.89535 z" />
        <path
           inkscape:connector-curvature="0"
           id="path139-2"
           style="font-style:normal;font-variant:normal;font-weight:bold;font-stretch:normal;font-size:6.35000038px;font-family:'Space Mono';-inkscape-font-specification:'Space Mono Bold';letter-spacing:-0.18218686px;fill:#333333;stroke:none;stroke-width:0.24032192"
           d="m 65.089273,56.895627 h 0.93345 v -1.2954 h 0.8001 v 1.2954 h 1.13665 v 0.762 h -1.13665 v 1.4351 q 0,0.1905 0.17145,0.1905 h 0.8509 v 0.762 h -1.3335 q -0.2159,0 -0.3556,-0.1397 -0.13335,-0.1397 -0.13335,-0.3556 v -1.8923 h -0.93345 z" />
      </g>
    </g>
  </g>
</svg>
